####
#
# OBJ File Generated by Meshlab
#
####
# Object scalp_all_data_2.obj
#
# Vertices: 543
# Faces: 984
#
####
vn 2.787781 -1.829133 -5.230341
v 0.034650 1.666515 -0.077976
vn 0.998167 -1.810303 -5.898902
v 0.015934 1.667426 -0.083253
vn 1.268311 -0.873552 -6.066809
v 0.015476 1.654039 -0.081079
vn 2.946035 -1.110427 -5.360014
v 0.032459 1.650141 -0.074727
vn 2.954214 -0.159400 -3.015221
v 0.047545 1.629696 -0.059834
vn 1.075440 0.088286 -1.395075
v 0.043295 1.615500 -0.064797
vn -2.558903 -1.701709 -5.387954
v -0.035802 1.668194 -0.080053
vn -0.734217 -1.768954 -5.950010
v -0.016785 1.668205 -0.084218
vn -0.949006 -0.820766 -6.132192
v -0.017093 1.654815 -0.082039
vn -2.674800 -0.976551 -5.525711
v -0.034587 1.651739 -0.076704
vn 4.714539 -2.546194 -3.218412
v 0.065908 1.682576 -0.056687
vn 5.477717 -2.341857 -1.911626
v 0.076312 1.682013 -0.035051
vn 5.327050 -2.505506 -2.072213
v 0.082076 1.699365 -0.043453
vn 4.704742 -2.617589 -3.120444
v 0.072942 1.699369 -0.061664
vn 3.387737 -0.437831 0.633044
v 0.091300 1.743780 0.010211
vn 3.510054 -0.420650 0.651182
v 0.092708 1.749883 0.006606
vn 1.458673 -0.980916 -0.582865
v 0.086913 1.689518 -0.010021
vn -2.732301 0.253230 -2.254705
v -0.057123 1.622389 -0.057869
vn -4.277390 0.159046 -4.558813
v -0.051472 1.632059 -0.062755
vn -1.570250 0.176578 -2.053366
v -0.047615 1.617670 -0.067479
vn 2.259548 -0.403585 0.259580
v 0.085296 1.696601 0.012367
vn 3.446457 -1.608090 -0.944166
v 0.086732 1.699566 -0.027384
vn 2.962336 -1.299393 -0.753604
v 0.080984 1.681504 -0.011372
vn 2.221521 -0.229289 0.381576
v 0.096018 1.752328 -0.010093
vn 3.879929 -0.339935 0.696005
v 0.095301 1.755307 -0.005041
vn 1.142367 -2.903452 -5.432953
v 0.018257 1.682338 -0.089502
vn 1.264161 -2.931309 -5.331162
v 0.021044 1.694843 -0.096872
vn 4.490863 -0.444629 -0.025728
v 0.098326 1.757291 -0.023569
vn 3.334717 -0.291260 -0.448678
v 0.097003 1.747177 -0.029615
vn 6.171987 -0.467850 -0.512617
v 0.100245 1.776301 -0.032506
vn 6.191490 -0.556749 0.825957
v 0.098203 1.764380 -0.015572
vn 6.216190 -0.264654 0.574233
v 0.100304 1.784380 -0.019333
vn 3.355289 -0.300187 0.574219
v 0.094255 1.753471 0.001064
vn 3.654793 -0.491726 0.282926
v 0.086175 1.703526 0.013483
vn 2.792646 -2.747900 -4.846511
v 0.038700 1.682021 -0.082317
vn 2.831242 -2.854527 -4.662302
v 0.043857 1.695596 -0.088752
vn 1.303594 -0.240297 -0.489306
v 0.063805 1.628125 -0.028610
vn 3.138556 -0.279779 0.125004
v 0.088206 1.721122 0.013342
vn 6.201803 -0.868390 0.474053
v 0.086026 1.703976 0.017479
vn 6.095022 -0.940021 1.124074
v 0.084496 1.702536 0.029319
vn 6.182976 -0.496185 0.896554
v 0.086942 1.722285 0.030550
vn 6.216305 -0.684644 0.442587
v 0.087612 1.716157 0.018904
vn 1.669176 3.047156 5.179656
v 0.023372 1.833049 0.092726
vn 1.046659 3.029481 5.337820
v 0.010381 1.834701 0.095255
vn 1.145163 3.833344 4.797992
v 0.011082 1.843879 0.088664
vn 1.806208 3.818013 4.622248
v 0.024344 1.841980 0.085838
vn 2.997028 -2.397863 -4.831900
v 0.046568 1.705479 -0.092433
vn 3.115731 -1.990767 -4.947805
v 0.049134 1.718189 -0.096520
vn 1.480434 -2.245762 -5.612152
v 0.024393 1.715683 -0.105585
vn 1.359709 -2.541535 -5.531544
v 0.022645 1.703941 -0.100838
vn 1.875196 5.004596 3.263634
v 0.025762 1.862922 0.061615
vn 1.288475 5.116634 3.351347
v 0.012455 1.865514 0.064272
vn 1.292609 5.481891 2.708193
v 0.013081 1.871695 0.053236
vn 1.856493 5.346004 2.675993
v 0.026571 1.868742 0.051012
vn -1.288386 -0.885266 -0.636676
v -0.095354 1.705845 -0.022904
vn 1.270339 5.757627 2.099728
v 0.013820 1.876973 0.040224
vn 1.795675 5.622628 2.091560
v 0.027609 1.873818 0.038491
vn 0.304186 0.685402 3.019174
v 0.006307 1.800308 0.106477
vn 0.759891 1.439227 6.062475
v 0.007807 1.809914 0.104076
vn 1.303595 1.489569 5.960094
v 0.019026 1.809194 0.102250
vn 0.566055 0.732968 2.965063
v 0.016785 1.799746 0.105120
vn 1.206354 4.342085 4.329384
v 0.011566 1.851901 0.081318
vn 1.878279 4.275178 4.172618
v 0.024932 1.849784 0.078388
vn 1.848280 5.953807 -0.644568
v 0.028708 1.881681 -0.018078
vn 1.771584 6.005644 -0.023813
v 0.029090 1.882160 -0.008588
vn 1.245569 6.132469 -0.031532
v 0.015021 1.885736 -0.009317
vn 1.325210 6.002098 -0.942466
v 0.016687 1.884619 -0.023566
vn 5.593462 -1.698455 -2.106590
v 0.088393 1.722247 -0.050257
vn 3.063763 -0.810053 -0.800520
v 0.092428 1.720729 -0.032594
vn 3.336137 -0.554964 -0.656366
v 0.095426 1.735846 -0.033091
vn 5.776705 -0.991886 -1.923208
v 0.093159 1.743050 -0.051840
vn 3.258582 0.594118 2.434898
v 0.066625 1.794219 0.076528
vn 1.410692 0.173077 0.912042
v 0.070615 1.785437 0.072335
vn 1.472110 1.981551 5.727745
v 0.021404 1.820935 0.098877
vn 0.887243 1.972607 5.846160
v 0.009167 1.822277 0.100965
vn 1.397767 0.723951 2.752806
v 0.039701 1.798485 0.098039
vn 2.996096 1.379347 5.334184
v 0.042061 1.807098 0.094450
vn 3.712326 1.404064 4.861464
v 0.051731 1.805083 0.088546
vn 1.794036 0.718806 2.585355
v 0.049479 1.796982 0.092512
vn 1.889168 4.648090 3.751689
v 0.025325 1.856574 0.070513
vn 1.255338 4.747076 3.875934
v 0.011968 1.858910 0.073352
vn -3.175208 0.018392 0.049215
v -0.096821 1.746403 -0.022541
vn -3.372601 -0.132195 -0.441527
v -0.097263 1.737849 -0.025065
vn 6.140913 -0.540292 1.191121
v 0.089794 1.742644 0.017357
vn 6.229872 -0.442119 0.646570
v 0.088636 1.729372 0.018718
vn 6.180497 -0.052818 1.113019
v 0.087298 1.738867 0.030399
vn 6.054936 -0.257874 1.627396
v 0.087760 1.755178 0.028393
vn 6.015144 -0.368857 1.755755
v 0.090166 1.769849 0.024697
vn 6.088650 -0.155475 1.522735
v 0.092227 1.780938 0.018619
vn 6.131724 -0.411950 1.257236
v 0.093411 1.761699 0.010143
vn 6.067551 -0.611495 1.448300
v 0.091705 1.753882 0.014996
vn 2.914485 -0.360672 -1.552382
v 0.058103 1.630438 -0.044937
vn 1.799474 -0.160445 -5.937222
v 0.028404 1.767385 -0.114807
vn 1.762909 -0.749605 -5.914423
v 0.027349 1.750757 -0.113748
vn 3.212708 -0.579237 -5.279957
v 0.052828 1.754905 -0.103083
vn 3.208752 -0.117698 -5.318654
v 0.053468 1.770750 -0.103713
vn 5.465658 -2.136084 -2.131051
v 0.084757 1.708949 -0.047019
vn 2.955532 -1.019531 -0.844646
v 0.089661 1.709502 -0.030512
vn 5.670772 0.380471 2.575612
v 0.080845 1.794059 0.052695
vn 5.702263 0.892444 2.406687
v 0.083594 1.808407 0.042235
vn 5.975760 0.209884 1.892712
v 0.089464 1.794677 0.028764
vn 5.930111 -0.146357 2.021259
v 0.087750 1.781421 0.034597
vn 5.599813 1.311688 2.422646
v 0.084973 1.820290 0.033816
vn 5.967628 0.451292 1.871997
v 0.091137 1.807633 0.021159
vn 6.093231 -0.018966 1.514493
v 0.094542 1.793135 0.009966
vn 6.154501 -0.498677 1.157572
v 0.096772 1.768296 -0.006048
vn -4.632565 -2.323668 -3.493984
v -0.067460 1.685754 -0.060619
vn -5.460713 -2.081804 -2.234047
v -0.079135 1.685718 -0.039634
vn -5.308930 -2.252336 -2.385734
v -0.083562 1.703311 -0.048336
vn -4.631971 -2.395013 -3.395769
v -0.073383 1.702854 -0.065977
vn -3.436146 -0.275372 0.431487
v -0.093805 1.748188 0.004755
vn -3.558320 -0.252571 0.443181
v -0.094707 1.754346 0.001083
vn -1.937371 -1.234475 -0.901494
v -0.090823 1.693754 -0.015261
vn -2.287317 -0.295325 0.126852
v -0.090193 1.700780 0.007189
vn -4.096619 -1.882797 -1.463713
v -0.089142 1.703756 -0.032570
vn -4.213478 -1.446019 -0.955450
v -0.085213 1.685465 -0.016272
vn 4.182293 -1.914878 -4.256036
v 0.065102 1.721574 -0.083727
vn 4.182319 -1.204483 -4.467263
v 0.067386 1.740425 -0.088984
vn 3.180225 -1.300906 -5.104354
v 0.051772 1.735101 -0.100751
vn -2.195076 -0.133819 -0.707298
v -0.097624 1.724781 -0.025230
vn -3.310042 -0.174839 0.329631
v -0.096910 1.756922 -0.015776
vn -3.926424 -0.153719 0.465978
v -0.096351 1.759872 -0.010687
vn -0.957416 -2.853403 -5.494861
v -0.018024 1.683203 -0.090571
vn -1.086176 -2.875325 -5.400391
v -0.019775 1.695815 -0.098075
vn -6.223748 -0.407900 -0.252486
v -0.098181 1.761971 -0.029358
vn -6.205526 -0.307799 -0.738514
v -0.096988 1.751797 -0.035331
vn -3.669321 -0.225406 0.126074
v -0.097060 1.753020 -0.020312
vn 1.769591 1.880602 -5.618889
v 0.030914 1.811854 -0.108844
vn 1.803806 0.737375 -5.853139
v 0.030083 1.792553 -0.113604
vn 3.118139 0.633748 -5.294920
v 0.054360 1.794010 -0.102646
vn 2.939501 1.637078 -5.202403
v 0.054522 1.810779 -0.098810
vn -6.146369 -0.174406 -0.875705
v -0.098664 1.781038 -0.038366
vn -6.248876 -0.260294 0.459018
v -0.098192 1.769058 -0.021357
vn -6.244771 0.032236 0.206737
v -0.099114 1.789130 -0.025208
vn -3.393510 -0.139276 0.375856
v -0.095755 1.757996 -0.004535
vn 3.806952 1.466804 -4.715541
v 0.066754 1.811990 -0.089715
vn 3.607332 2.346605 -4.517790
v 0.065836 1.822623 -0.086060
vn 2.813205 2.595839 -4.877265
v 0.055186 1.825195 -0.092401
vn 4.197372 -0.953276 -4.554778
v 0.044692 1.647500 -0.064493
vn 3.075237 -0.337804 -5.423530
v 0.031330 1.634772 -0.072801
vn 4.142383 -2.336241 -4.078723
v 0.062658 1.708123 -0.079303
vn 4.199576 -0.488818 -4.618715
v 0.068606 1.760004 -0.090904
vn 4.178335 3.349249 -3.101087
v 0.076505 1.836103 -0.065361
vn 4.330252 3.868837 -2.120570
v 0.078949 1.843772 -0.050907
vn 3.129229 4.670645 -2.503640
v 0.058889 1.857744 -0.058100
vn 3.065096 3.991225 -3.582720
v 0.057989 1.848253 -0.072233
vn 4.044660 0.580403 -4.709068
v 0.068250 1.797240 -0.091678
vn 4.046937 1.703970 4.456721
v 0.054776 1.814218 0.083341
vn 4.665256 1.475806 3.893240
v 0.063479 1.809752 0.076090
vn 4.434012 1.267165 4.228395
v 0.060447 1.801588 0.082121
vn 2.178915 -0.315306 0.549049
v 0.087073 1.707090 0.011966
vn 3.938794 -2.644404 -4.099674
v 0.053105 1.682386 -0.070306
vn 4.012302 -2.754484 -3.936112
v 0.059582 1.697846 -0.076025
vn 3.222099 -0.310003 0.346943
v 0.089528 1.733337 0.012293
vn 3.636368 -0.467048 0.209833
v 0.087167 1.711386 0.014060
vn 1.706169 3.559998 -4.809831
v 0.032019 1.839924 -0.093613
vn 1.740679 4.250967 -4.120263
v 0.032613 1.855517 -0.080453
vn 1.769167 5.503104 -2.209756
v 0.031179 1.872586 -0.054373
vn 1.618272 5.792418 -1.591413
v 0.028025 1.877990 -0.040443
vn 1.295781 6.054398 0.802265
v 0.015231 1.884796 0.008797
vn -3.215646 -0.272438 -0.020201
v -0.090805 1.707740 0.008262
vn -2.630035 -2.618730 -5.006353
v -0.038847 1.683869 -0.084603
vn -2.684350 -2.723317 -4.824903
v -0.042964 1.697664 -0.091311
vn 1.751906 4.986103 -3.158911
v 0.032388 1.865500 -0.067996
vn 5.375819 1.601096 2.784347
v 0.077523 1.817208 0.050650
vn 5.348815 1.208805 3.020307
v 0.075086 1.808687 0.059314
vn 4.861399 1.852096 3.441552
v 0.067452 1.818315 0.067250
vn 4.908743 2.256105 3.119469
v 0.069826 1.825174 0.059355
vn 5.249557 1.982395 2.783626
v 0.078774 1.826918 0.041964
vn 4.802633 2.642491 3.000533
v 0.070843 1.833281 0.051056
vn 2.728105 5.561927 -0.287464
v 0.052878 1.873573 -0.012007
vn 2.858940 5.493205 0.651812
v 0.053078 1.872673 0.004117
vn 1.790059 5.937989 0.782191
v 0.029277 1.881243 0.007697
vn 2.483829 5.599316 -1.215248
v 0.046868 1.873769 -0.027930
vn 3.318313 4.997670 -1.543544
v 0.062459 1.863127 -0.038276
vn 3.614432 4.983922 -0.443718
v 0.064650 1.866395 -0.016067
vn 3.740220 4.961959 0.541120
v 0.064007 1.866032 0.001170
vn 1.477907 0.078331 -2.813728
v 0.029682 1.619276 -0.074098
vn 4.171983 -0.093098 -4.666388
v 0.068849 1.775444 -0.091675
vn 3.591282 4.952708 1.278277
v 0.061872 1.864660 0.016694
vn 2.812057 5.388483 1.407526
v 0.051708 1.870317 0.019616
vn 2.881179 5.075557 2.149172
v 0.050548 1.866466 0.033453
vn 3.543020 4.705743 2.069553
v 0.059749 1.861796 0.029765
vn 1.780615 5.816817 1.514665
v 0.028457 1.877998 0.024013
vn 1.283646 5.930017 1.554694
v 0.014502 1.881303 0.025687
vn 1.658594 -1.526482 -5.765282
v 0.026202 1.731243 -0.110632
vn 4.895344 -1.754071 -3.471467
v 0.059641 1.662300 -0.052892
vn 5.622335 -1.726059 -2.050811
v 0.070456 1.659961 -0.031750
vn 2.120000 -0.605350 -0.461401
v 0.074376 1.658106 -0.011305
vn 4.110280 -1.716793 -4.416881
v 0.047789 1.664076 -0.066285
vn 6.158248 -0.362970 1.183936
v 0.094872 1.767796 0.003687
vn -2.903698 -0.257720 -1.067308
v -0.069598 1.631312 -0.032544
vn -3.150297 -0.130104 -0.059530
v -0.091985 1.725413 0.008029
vn 4.806506 -2.284787 -3.241889
v 0.075682 1.709507 -0.065210
vn 4.857993 -1.845829 -3.382401
v 0.078426 1.722687 -0.069872
vn 0.814286 0.039779 -3.097873
v 0.014183 1.621886 -0.079756
vn 1.537341 -0.366193 -6.052269
v 0.014929 1.638377 -0.079528
vn 5.924957 -0.556850 -1.762399
v 0.095877 1.764000 -0.050201
vn -6.253252 -0.571725 0.108542
v -0.090868 1.708187 0.012262
vn -6.188584 -0.647606 0.761041
v -0.090108 1.706692 0.024172
vn -6.241638 -0.200536 0.529442
v -0.091683 1.726538 0.025286
vn -6.257182 -0.388007 0.075599
v -0.091954 1.720432 0.013610
vn 6.178425 0.441852 0.220119
v 0.100720 1.801357 -0.021673
vn 6.091879 0.212874 -1.002984
v 0.100303 1.793953 -0.037754
vn 5.938252 1.642100 -0.192139
v 0.097488 1.822224 -0.024965
vn 5.873322 1.300285 -1.383748
v 0.096728 1.815940 -0.042400
vn 5.478645 0.884941 -2.692143
v 0.091654 1.808452 -0.060751
vn 5.745968 -0.020949 -2.313934
v 0.095149 1.785016 -0.056209
vn 5.151353 2.405483 2.610443
v 0.079923 1.834747 0.033627
vn 5.576144 1.780209 2.107370
v 0.086311 1.828386 0.025420
vn 4.656273 2.979014 2.923733
v 0.071403 1.840335 0.043406
vn 4.475167 3.429540 2.653391
v 0.071584 1.846650 0.036242
vn 5.037184 2.982013 2.142560
v 0.079622 1.842228 0.026195
vn 5.585485 2.220684 1.447659
v 0.088749 1.833866 0.012357
vn 6.149647 -0.157553 1.229845
v 0.098116 1.790531 -0.005392
vn 6.108190 0.606269 1.072312
v 0.098112 1.808058 -0.005599
vn 6.014104 0.769163 1.518203
v 0.094047 1.812854 0.009715
vn -1.320490 0.138528 0.662201
v -0.079884 1.753028 0.062087
vn 5.836549 1.912159 0.759934
v 0.094566 1.828168 -0.007200
vn 5.072161 3.459754 0.922421
v 0.084169 1.844950 0.005673
vn 5.255391 3.251913 0.286866
v 0.089206 1.840476 -0.011024
vn 4.465739 4.338059 0.561371
v 0.075821 1.855354 0.001657
vn 4.540470 4.258456 -0.168924
v 0.078918 1.853283 -0.015097
vn 4.413642 4.218502 -1.169684
v 0.079191 1.850156 -0.033473
vn 5.276681 3.071786 -0.673896
v 0.091649 1.835870 -0.028492
vn 4.767343 3.659491 1.599495
v 0.077746 1.848864 0.019602
vn 4.242343 3.968534 2.288632
v 0.069923 1.852348 0.030475
vn 4.258750 4.393863 1.228618
v 0.071804 1.856586 0.015979
vn 4.017097 4.422599 1.860531
v 0.067378 1.857186 0.025600
vn 5.922163 0.943519 1.817963
v 0.091475 1.814821 0.017713
vn -1.824236 3.130258 5.076846
v -0.026685 1.834241 0.091252
vn -1.213530 3.083252 5.271253
v -0.013803 1.835277 0.094543
vn -1.241532 3.890128 4.727808
v -0.013676 1.844468 0.087936
vn -1.891389 3.906081 4.513184
v -0.026823 1.843199 0.084333
vn 3.215343 -0.639490 0.186505
v 0.084306 1.693238 0.015090
vn -2.817999 -2.259402 -5.003252
v -0.044982 1.707659 -0.095131
vn -2.910153 -1.847214 -5.125490
v -0.046695 1.720471 -0.099344
vn -1.252674 -2.180749 -5.692740
v -0.021610 1.716779 -0.106940
vn -1.151156 -2.481547 -5.605638
v -0.020705 1.704973 -0.102115
vn 3.370079 -0.307852 0.958197
v 0.081518 1.723009 0.054827
vn 3.083749 0.124366 0.868500
v 0.082001 1.738767 0.053041
vn 6.101501 -0.166970 1.350245
v 0.085584 1.729117 0.041032
vn 6.011471 -1.004274 1.410792
v 0.083567 1.710594 0.041641
vn -1.823662 5.092800 3.154519
v -0.025814 1.864150 0.060097
vn -1.238577 5.177010 3.276654
v -0.012578 1.866110 0.063535
vn -1.187447 5.540967 2.635228
v -0.012258 1.872298 0.052490
vn -1.754275 5.432070 2.569584
v -0.025719 1.869987 0.049472
vn 4.091800 0.148221 1.405487
v 0.081004 1.755863 0.051859
vn 6.077088 0.203114 1.569112
v 0.085053 1.746806 0.040240
vn 5.963941 -0.169961 1.954418
v 0.085223 1.764803 0.038323
vn 5.833372 -0.077411 2.328356
v 0.080721 1.774031 0.051523
vn 4.789369 0.663160 -3.860688
v 0.081272 1.801598 -0.078385
vn 4.958241 0.022292 -3.726718
v 0.083546 1.780186 -0.076910
vn 5.049689 -0.422364 -3.553709
v 0.083767 1.764714 -0.075740
vn 1.905346 0.584492 2.019355
v 0.058286 1.794305 0.086475
vn -1.116332 5.814359 2.029579
v -0.011979 1.877588 0.039465
vn -1.646259 5.704584 1.990213
v -0.025776 1.875089 0.036919
vn 1.717928 2.851717 -5.237706
v 0.031598 1.828801 -0.101026
vn 4.276966 2.326799 3.906531
v 0.058286 1.823768 0.075412
vn 3.963267 2.731108 -3.912900
v 0.072211 1.826851 -0.078086
vn 0.177811 -0.276690 -6.254918
v -0.001146 1.640041 -0.081735
vn 2.888211 3.349927 -4.373469
v 0.056192 1.834631 -0.085524
vn 5.222737 2.695423 -1.737837
v 0.091080 1.829878 -0.045803
vn 5.009928 2.165090 -2.819009
v 0.087424 1.822988 -0.061210
vn 4.487867 1.626350 -3.951708
v 0.077802 1.815224 -0.078490
vn 4.955568 -1.035159 -3.468472
v 0.082348 1.744802 -0.074627
vn 3.693458 4.345946 2.599859
v 0.060030 1.857002 0.037995
vn -0.448601 0.703294 2.997175
v -0.012038 1.800746 0.105936
vn -1.046301 1.482150 6.009213
v -0.012935 1.810408 0.103465
vn -1.579769 1.557959 5.875211
v -0.024048 1.810220 0.100980
vn -0.704063 0.763048 2.927585
v -0.022432 1.800680 0.103963
vn 3.741519 -0.887172 -1.506016
v 0.066276 1.644232 -0.029937
vn -1.250883 4.400711 4.256907
v -0.013343 1.852495 0.080585
vn -1.915021 4.365840 4.060630
v -0.026598 1.851011 0.076871
vn -1.521887 6.034000 -0.744056
v -0.023169 1.882917 -0.019606
vn -1.479370 6.083077 -0.119681
v -0.024085 1.883427 -0.010154
vn -0.948291 6.184763 -0.096335
v -0.009843 1.886328 -0.010050
vn -0.980301 6.057121 -1.010412
v -0.010719 1.885271 -0.024374
vn 5.184520 0.968104 3.371097
v 0.070930 1.800354 0.069017
vn 4.253895 0.368195 2.356793
v 0.074918 1.789705 0.064591
vn 3.042887 -0.008580 1.343900
v 0.076653 1.775414 0.061079
vn 1.911860 0.044038 0.810472
v 0.077440 1.759891 0.060031
vn -5.534196 -1.433309 -2.434769
v -0.088372 1.726457 -0.055466
vn -5.912532 -1.092369 -1.761136
v -0.093508 1.725157 -0.038075
vn -6.090622 -0.704215 -1.217641
v -0.095749 1.740399 -0.038725
vn -5.694070 -0.718675 -2.261414
v -0.092042 1.747460 -0.057297
vn 4.227448 3.241766 3.291965
v 0.060631 1.838695 0.060333
vn 0.095449 0.022021 -3.216230
v -0.001546 1.623011 -0.081804
vn 4.088607 3.564893 3.125817
v 0.060754 1.845475 0.053022
vn 4.300046 2.882530 3.508964
v 0.059943 1.831401 0.067934
vn 3.099721 4.745968 2.652620
v 0.049724 1.861491 0.043798
vn 3.293524 4.399548 2.975000
v 0.049453 1.856176 0.052957
vn 3.888698 3.966539 2.872920
v 0.060614 1.851609 0.045658
vn 3.471647 4.004616 3.316149
v 0.049745 1.850014 0.060808
vn 3.587276 3.678554 3.565804
v 0.049972 1.843250 0.068066
vn 3.606399 3.318749 3.865298
v 0.049256 1.836046 0.075708
vn 3.538061 2.648297 4.353682
v 0.047872 1.828067 0.083097
vn 3.295577 1.777039 4.972545
v 0.044890 1.817374 0.090188
vn 5.126314 -1.016917 -3.443099
v 0.056264 1.646182 -0.050800
vn -3.364170 0.751846 2.240105
v -0.070707 1.797489 0.072484
vn -2.933352 0.372175 1.575406
v -0.074857 1.788900 0.068052
vn -1.710470 2.056993 5.634099
v -0.025662 1.822056 0.097491
vn -1.134877 2.020719 5.786639
v -0.013520 1.822818 0.100296
vn -1.601356 0.108332 0.686227
v -0.077711 1.777486 0.064396
vn -1.521366 0.793541 2.666708
v -0.044924 1.800500 0.095546
vn -3.235646 1.527246 5.150814
v -0.046655 1.809211 0.091837
vn -3.920781 1.585339 4.636892
v -0.056046 1.807649 0.085372
vn -2.357548 1.023481 2.990528
v -0.054419 1.799455 0.089451
vn -1.883276 4.738020 3.640544
v -0.026204 1.857801 0.068996
vn -1.253912 4.806954 3.801805
v -0.012941 1.859504 0.072619
vn -6.219200 -0.245628 0.826225
v -0.092779 1.746991 0.011977
vn -6.271120 -0.144142 0.277771
v -0.092337 1.733681 0.013383
vn -6.230859 0.243333 0.746551
v -0.091239 1.743118 0.025137
vn -6.145662 0.032587 1.267482
v -0.090804 1.759429 0.023132
vn -6.118883 -0.080221 1.397602
v -0.092289 1.774193 0.019323
vn -6.168305 0.136750 1.160980
v -0.093458 1.785360 0.013149
vn -6.207778 -0.117966 0.893634
v -0.095054 1.766188 0.004590
vn -6.164520 -0.320360 1.087395
v -0.094011 1.758303 0.009524
vn -2.114738 0.056672 -1.088463
v -0.064534 1.620778 -0.045867
vn -5.385201 -0.070128 -3.182468
v -0.062841 1.633325 -0.048503
vn -1.452517 -0.083018 -6.033068
v -0.022608 1.768600 -0.116310
vn -1.445508 -0.673096 -6.008969
v -0.022410 1.751942 -0.115214
vn -2.920284 -0.433210 -5.460715
v -0.048246 1.757311 -0.106061
vn -2.892140 0.027555 -5.498418
v -0.048093 1.773169 -0.106706
vn -5.426088 -1.876592 -2.452196
v -0.085570 1.713006 -0.052040
vn -3.817213 -1.096590 -1.304242
v -0.091405 1.713815 -0.035850
vn -5.788246 0.654129 2.237454
v -0.083488 1.797972 0.047855
vn -5.785034 1.166378 2.068269
v -0.084930 1.812421 0.037271
vn -6.059988 0.497431 1.538012
v -0.090645 1.798967 0.023459
vn -6.038953 0.139382 1.668284
v -0.089914 1.785652 0.029365
vn -5.663841 1.579872 2.091046
v -0.085245 1.824344 0.028802
vn -6.039135 0.737539 1.518388
v -0.091249 1.811977 0.015787
vn -6.165747 0.273241 1.153430
v -0.094676 1.797643 0.004393
vn -6.228684 -0.203596 0.792785
v -0.097140 1.772915 -0.011760
vn -4.010860 -1.719714 -4.497484
v -0.063210 1.724630 -0.087509
vn -3.964686 -1.010323 -4.707394
v -0.064281 1.743561 -0.092864
vn -2.932543 -1.155230 -5.284572
v -0.048272 1.737484 -0.103699
vn -1.344423 1.954803 -5.710711
v -0.023347 1.813146 -0.110442
vn -1.419057 0.814206 -5.948083
v -0.023156 1.793821 -0.115173
vn -2.767475 0.773969 -5.468279
v -0.047939 1.796446 -0.105661
vn -2.547072 1.767714 -5.364077
v -0.047529 1.813209 -0.101817
vn -3.448851 1.639594 -4.929317
v -0.060204 1.815014 -0.093455
vn -3.219718 2.509184 -4.718786
v -0.058998 1.825596 -0.089738
vn -2.394718 2.719838 -5.030658
v -0.047883 1.827650 -0.095438
vn -3.962967 -0.759498 -4.794831
v -0.047514 1.649699 -0.067211
vn -2.763365 -0.199463 -5.595496
v -0.034306 1.636337 -0.074736
vn -4.001594 -2.142355 -4.318666
v -0.061673 1.711084 -0.082967
vn -3.938936 -0.294865 -4.858565
v -0.064453 1.763173 -0.094825
vn -3.824502 3.539804 -3.337098
v -0.070213 1.839597 -0.069683
vn -4.009151 4.067270 -2.366374
v -0.073137 1.847394 -0.055387
vn -2.750701 4.810510 -2.677010
v -0.052046 1.860387 -0.061369
vn -2.655729 4.127352 -3.751510
v -0.050768 1.850842 -0.075437
vn -3.728331 0.765544 -4.938137
v -0.062281 1.800349 -0.095524
vn -4.216481 1.900616 4.213359
v -0.058341 1.816912 0.080011
vn -4.810668 1.701441 3.614231
v -0.066805 1.812855 0.072254
vn -4.609704 1.482447 3.962135
v -0.064525 1.804564 0.078441
vn -3.811837 -2.459759 -4.328246
v -0.053900 1.684935 -0.073460
vn -3.900011 -2.566096 -4.169388
v -0.059287 1.700678 -0.079529
vn -3.248038 -0.155593 0.156032
v -0.092659 1.737676 0.006922
vn -3.275572 -0.256834 -0.076499
v -0.091454 1.715639 0.008792
vn -1.916268 -0.024458 0.696750
v -0.082825 1.723243 0.063033
vn -3.230602 0.222349 1.207603
v -0.084357 1.735332 0.057670
vn -1.248902 3.630439 -4.896879
v -0.024010 1.841258 -0.095264
vn -1.291136 4.323128 -4.209599
v -0.024636 1.856880 -0.082140
vn -1.372337 5.578012 -2.302216
v -0.023929 1.873898 -0.055996
vn -1.244595 5.860531 -1.675861
v -0.021346 1.879166 -0.041897
vn -1.051095 6.110341 0.733029
v -0.011163 1.885425 0.008020
vn -1.323844 5.059331 -3.249521
v -0.024670 1.866859 -0.069677
vn -5.448143 1.859337 2.465174
v -0.078952 1.820935 0.046041
vn -5.454166 1.466724 2.700806
v -0.077440 1.812319 0.054822
vn -4.962163 2.086726 3.150913
v -0.069839 1.821585 0.063208
vn -4.971273 2.491912 2.827581
v -0.071411 1.828538 0.055195
vn -5.304057 2.233444 2.472975
v -0.079227 1.830681 0.037310
vn -4.839863 2.871779 2.716508
v -0.071552 1.836673 0.046862
vn -2.438747 5.684972 -0.439841
v -0.048012 1.875976 -0.014979
vn -2.627920 5.623911 0.489977
v -0.049203 1.875109 0.001105
vn -1.548325 6.017522 0.683867
v -0.025274 1.882543 0.006091
vn -2.138843 5.709438 -1.351493
v -0.041073 1.875863 -0.030520
vn -2.980139 5.147783 -1.729041
v -0.056516 1.865961 -0.041781
vn -3.340894 5.149605 -0.648705
v -0.059853 1.869360 -0.019734
vn -3.525239 5.135037 0.326946
v -0.060243 1.868992 -0.002490
vn -1.303836 0.143972 -2.895929
v -0.033312 1.620779 -0.075957
vn -3.889874 0.098999 -4.903947
v -0.063916 1.778606 -0.095586
vn -3.420710 5.119699 1.071558
v -0.059094 1.867541 0.013131
vn -2.630634 5.518025 1.247076
v -0.048862 1.872713 0.016654
vn -2.757910 5.209826 1.983206
v -0.048702 1.868830 0.030531
vn -3.430864 4.871691 1.864250
v -0.057882 1.864598 0.026301
vn -1.587890 5.897021 1.415603
v -0.025571 1.879285 0.022422
vn -1.089321 5.986538 1.484733
v -0.011597 1.881925 0.024919
vn -1.387094 -1.454049 -5.854969
v -0.022377 1.732400 -0.112064
vn -4.760468 -1.524922 -3.755566
v -0.062399 1.665209 -0.056490
vn -5.567408 -1.460728 -2.380548
v -0.074535 1.663419 -0.036025
vn -2.205417 -0.490029 -0.535140
v -0.075002 1.645053 -0.016147
vn -3.132891 -0.777610 -0.789155
v -0.079738 1.661782 -0.015848
vn -3.920102 -1.525500 -4.653634
v -0.049708 1.666400 -0.069159
vn -6.227489 -0.067809 0.819366
v -0.095841 1.772339 -0.001931
vn -4.710608 -2.057849 -3.522589
v -0.075423 1.713106 -0.069663
vn -4.732816 -1.617397 -3.665016
v -0.077258 1.726395 -0.074460
vn -0.627403 0.073806 -3.140522
v -0.017401 1.622640 -0.080688
vn -1.194039 -0.301395 -6.132758
v -0.017384 1.639147 -0.080481
vn -5.830733 -0.276783 -2.108889
v -0.093852 1.768519 -0.055791
vn -6.152696 0.735593 -0.143322
v -0.098583 1.806103 -0.027544
vn -6.005303 0.501007 -1.359438
v -0.097573 1.798666 -0.043583
vn -5.831719 1.922655 -0.538930
v -0.094174 1.826789 -0.030611
vn -5.713034 1.576443 -1.725099
v -0.092690 1.820452 -0.047980
vn -5.262398 1.140820 -3.008679
v -0.086906 1.812705 -0.066011
vn -5.594327 0.249201 -2.648061
v -0.091773 1.789468 -0.061716
vn -5.175783 2.651182 2.306366
v -0.079511 1.838544 0.028932
vn -5.599498 2.046190 1.778359
v -0.085700 1.832483 0.020354
vn -4.673413 3.200959 2.648905
v -0.071325 1.843735 0.039202
vn -4.455401 3.642138 2.390284
v -0.070784 1.850041 0.032049
vn -5.007071 3.221041 1.846891
v -0.078418 1.845992 0.021540
vn -5.548964 2.485759 1.119671
v -0.087103 1.838055 0.007178
vn -6.211849 0.137033 0.865594
v -0.097461 1.795190 -0.011153
vn -6.124906 0.897846 0.711852
v -0.096610 1.812696 -0.011335
vn -6.049578 1.056572 1.162932
v -0.093229 1.817315 0.004199
vn -5.773592 2.188717 0.417721
v -0.092023 1.832612 -0.012697
vn -4.947317 3.698475 0.627012
v -0.081615 1.848899 0.000790
vn -5.102554 3.498514 -0.018463
v -0.085868 1.844646 -0.016181
vn -4.279648 4.546350 0.303574
v -0.072560 1.858888 -0.002713
vn -4.314991 4.469338 -0.429804
v -0.074761 1.856943 -0.019624
vn -4.131511 4.421914 -1.421475
v -0.074100 1.853808 -0.037989
vn -5.075858 3.318372 -0.979015
v -0.087494 1.840137 -0.033769
vn -4.673693 3.884246 1.321517
v -0.075844 1.852523 0.015079
vn -4.176126 4.168893 2.040792
v -0.068518 1.855645 0.026398
vn -4.109787 4.593212 0.982011
v -0.069339 1.859948 0.011822
vn -3.904716 4.611254 1.627183
v -0.065463 1.860350 0.021688
vn -5.967240 1.226751 1.467939
v -0.091041 1.819168 0.012337
vn -2.308638 -0.292632 0.026445
v -0.089524 1.697376 0.009962
vn -6.002352 -0.092451 1.691934
v -0.087670 1.727037 0.049841
vn -5.967309 0.582362 1.773889
v -0.087297 1.742799 0.048053
vn -6.171418 0.125506 0.988059
v -0.090622 1.733312 0.035840
vn -6.125092 -0.715397 1.052557
v -0.089527 1.714715 0.036539
vn -5.985791 0.550875 1.815523
v -0.085418 1.759825 0.046956
vn -6.142431 0.494673 1.208384
v -0.089202 1.750955 0.035107
vn -6.070024 0.116256 1.599479
v -0.088402 1.768936 0.033209
vn -5.957349 0.203699 1.980909
v -0.084252 1.777959 0.046664
vn -4.516814 0.884943 -4.134904
v -0.075842 1.805340 -0.083014
vn -4.723550 0.252889 -4.012121
v -0.079214 1.784063 -0.081706
vn -4.846147 -0.186660 -3.845307
v -0.080240 1.768619 -0.080572
vn -2.840077 1.085598 2.873177
v -0.062973 1.797192 0.082904
vn -1.269100 2.922770 -5.325742
v -0.023683 1.830118 -0.102655
vn -4.383669 2.533595 3.651083
v -0.060920 1.826608 0.071903
vn -3.591816 2.911166 -4.135426
v -0.065622 1.830133 -0.082147
vn -2.463368 3.477482 -4.530972
v -0.048842 1.837132 -0.088619
vn -4.977321 2.938608 -2.038359
v -0.086193 1.834100 -0.051025
vn -4.726570 2.397084 -3.106016
v -0.081969 1.827022 -0.066201
vn -4.165094 1.832634 -4.206650
v -0.071727 1.818785 -0.082895
vn -4.786468 -0.803089 -3.755601
v -0.079837 1.748665 -0.079406
vn -3.629216 4.520321 2.384114
v -0.058874 1.859834 0.034493
vn -5.745733 -1.075352 -2.212209
v -0.071219 1.647514 -0.033991
vn -5.322013 1.218595 3.061218
v -0.074266 1.803811 0.064743
vn -5.624018 0.668683 2.677976
v -0.078489 1.793357 0.060075
vn -4.491960 0.215899 1.695337
v -0.080692 1.779160 0.056446
vn -3.576293 0.302515 1.338910
v -0.082154 1.763690 0.055330
vn -3.972134 0.470832 1.623491
v -0.083523 1.749058 0.055661
vn -4.255124 3.443694 3.041882
v -0.061658 1.841607 0.056731
vn -4.091236 3.759486 2.885053
v -0.061028 1.848376 0.049436
vn -4.357246 3.089428 3.253029
v -0.061767 1.834300 0.064350
vn -3.021184 4.891689 2.472326
v -0.048726 1.863836 0.040899
vn -3.249852 4.555388 2.782310
v -0.049247 1.858527 0.050050
vn -3.857947 4.151034 2.644606
v -0.060164 1.854486 0.042101
vn -3.466508 4.169952 3.111460
v -0.050293 1.852397 0.057862
vn -3.612123 3.850000 3.353328
v -0.051269 1.845662 0.065085
vn -3.665662 3.492185 3.650942
v -0.051347 1.838442 0.072746
vn -3.658014 2.820082 4.141535
v -0.050784 1.830416 0.080192
vn -3.494087 1.938620 4.772479
v -0.048737 1.819604 0.087432
vn -4.957664 -0.778038 -3.739614
v -0.059916 1.648954 -0.054225
vn -1.381590 -0.290345 0.343021
v -0.085299 1.685623 0.030448
vn -0.866249 -0.174270 0.153808
v -0.082594 1.695306 0.054151
vn -2.950057 -0.285912 0.831707
v -0.084755 1.714303 0.056197
vn -4.530047 -0.818562 0.883053
v -0.085636 1.703308 0.046085
vn -3.681960 -0.688922 0.767119
v -0.085086 1.693163 0.037688
vn -3.835044 -0.428017 0.594175
v -0.089694 1.696369 0.021842
vn -1.589944 -0.368177 -0.034354
v -0.084975 1.683931 -0.010847
vn 0.097038 5.990828 1.555136
v 0.001459 1.883274 0.026428
vn -0.126220 1.957220 5.862885
v -0.002208 1.822806 0.101890
vn 0.133416 -1.768282 -5.951380
v -0.000405 1.667986 -0.084308
vn 0.113388 -2.380562 -5.775225
v 0.001438 1.715545 -0.108416
vn -0.024563 4.381023 4.380229
v -0.000914 1.853044 0.082465
vn -0.084856 3.045366 5.343623
v -0.001730 1.835843 0.096227
vn 0.198070 0.794927 -6.078054
v 0.003579 1.793043 -0.118407
vn 0.217652 1.974715 -5.792022
v 0.003926 1.813457 -0.113698
vn -0.075555 0.671440 3.105153
v -0.002876 1.800874 0.106831
vn 0.197960 5.903986 -1.947699
v 0.003495 1.880649 -0.044793
vn 0.052547 5.544544 2.696119
v 0.000408 1.873462 0.054153
vn 0.162253 -0.767250 -6.126658
v 0.002555 1.750421 -0.118129
vn 0.222694 5.145391 -3.399362
v 0.004005 1.868499 -0.071912
vn 0.077579 5.827616 2.083972
v 0.000927 1.878844 0.040911
vn 0.135706 -1.647834 -5.936458
v 0.001986 1.730993 -0.114512
vn 0.179013 -0.119331 -6.172189
v 0.002990 1.767193 -0.119326
vn 0.208096 5.636242 -2.508232
v 0.003788 1.875726 -0.058708
vn 0.233779 3.712603 -4.932595
v 0.004158 1.843009 -0.097689
vn -0.145862 1.408200 6.090234
v -0.002591 1.810294 0.104801
vn -0.049811 3.872122 4.826245
v -0.001320 1.845000 0.089743
vn 0.229277 3.004749 -5.353945
v 0.004113 1.831617 -0.105390
vn 0.176069 6.022243 -1.113615
v 0.003063 1.886604 -0.025322
vn 0.150434 6.197841 -0.099245
v 0.002640 1.887609 -0.010154
vn 0.167864 -0.671470 -6.236224
v -0.000734 1.655891 -0.082902
vn 0.023460 5.163510 3.379019
v -0.000079 1.867021 0.065456
vn 0.108091 -2.535471 -5.717209
v 0.001016 1.704002 -0.103406
vn 0.122368 6.099114 0.779252
v 0.002053 1.886947 0.009238
vn -0.001496 4.786047 3.929847
v -0.000509 1.860203 0.074554
vn 0.090303 -3.013526 -5.501275
v 0.000155 1.682606 -0.091484
vn 0.091747 -2.934365 -5.485444
v 0.000675 1.694824 -0.099261
vn 0.230100 4.413260 -4.243032
v 0.004142 1.858940 -0.084286
vn 0.976442 -0.249534 0.026513
v 0.081346 1.682340 0.021534
vn -2.317654 1.557101 5.610740
v -0.035587 1.809778 0.097458
vn -2.353018 5.236299 2.485150
v -0.038362 1.867066 0.045591
vn -1.047511 0.793968 2.824374
v -0.033902 1.800749 0.100728
vn -2.505762 4.888731 2.959105
v -0.038962 1.861538 0.055593
vn -0.674348 0.324268 0.768983
v -0.061840 1.790079 0.086897
vn -1.724701 5.955638 -0.979096
v -0.031593 1.879782 -0.024513
vn -1.854284 5.975341 -0.254613
v -0.036913 1.879736 -0.011995
vn -2.640776 3.057479 4.688071
v -0.039450 1.832886 0.086766
vn -2.699470 3.801414 4.136080
v -0.039856 1.841397 0.079508
vn 1.805737 -0.314204 0.551474
v 0.077632 1.710437 0.060985
vn 3.035979 -0.678858 0.811381
v 0.078582 1.699399 0.050927
vn -2.700973 4.192080 3.750664
v -0.039749 1.848868 0.071920
vn 1.919011 -0.427134 0.507989
v 0.078044 1.689281 0.042499
vn 4.290404 -0.737159 0.655609
v 0.083729 1.692241 0.026956
vn -2.128925 5.534576 1.980485
v -0.038348 1.872063 0.033812
vn -1.966806 5.907623 0.592904
v -0.038188 1.878957 0.003686
vn -1.085188 5.995285 -1.437613
v -0.016374 1.882036 -0.033370
vn -2.623348 4.522152 3.405163
v -0.039363 1.855472 0.064193
vn -2.504365 2.020702 5.295860
v -0.037829 1.821214 0.093484
vn -1.995950 5.787898 1.345391
v -0.038150 1.876098 0.019575
vn 0.194980 5.945378 -1.811823
v 0.003305 1.883372 -0.036136
vn 2.055027 1.453113 5.739452
v 0.030720 1.808199 0.099412
vn 2.449270 5.121903 2.626585
v 0.039267 1.865217 0.047877
vn 0.916093 0.746964 2.882169
v 0.028417 1.799264 0.102564
vn 2.556932 4.768045 3.108458
v 0.039014 1.859681 0.057889
vn 2.060412 5.865586 -0.867342
v 0.037248 1.878143 -0.022485
vn 2.148002 5.880062 -0.136459
v 0.041814 1.877861 -0.009676
vn 2.502705 2.934836 4.839612
v 0.036301 1.831082 0.088997
vn 2.629039 3.674580 4.293113
v 0.037539 1.839554 0.081786
vn 2.672081 4.064116 3.908985
v 0.038235 1.847010 0.074215
vn 2.269693 5.429777 2.109963
v 0.040184 1.870193 0.036124
vn 2.207103 5.808285 0.716113
v 0.042126 1.877043 0.006051
vn 1.451845 5.934874 -1.362851
v 0.022702 1.881105 -0.032219
vn 2.630538 4.396809 3.560288
v 0.038619 1.853614 0.066489
vn 2.281890 1.906932 5.436831
v 0.033733 1.819509 0.095591
vn 2.186476 5.688310 1.468410
v 0.041016 1.874212 0.021906
# 543 vertices, 0 vertices normals

f 11//11 13//13 12//12
f 7//7 9//9 10//10
f 30//30 31//31 28//28
f 27//27 35//35 26//26
f 47//47 49//49 48//48
f 68//68 70//70 69//69
f 74//74 44//44 75//75
f 36//36 50//50 47//47
f 43//43 45//45 44//44
f 88//88 90//90 89//89
f 85//85 41//41 42//42
f 101//101 105//105 104//104
f 25//25 31//31 106//106
f 117//117 119//119 118//118
f 128//128 130//130 129//129
f 138//138 136//136 131//131
f 118//118 95//95 142//142
f 141//141 48//48 117//117
f 143//143 145//145 144//144
f 131//131 147//147 130//130
f 107//107 109//109 110//110
f 152//152 36//36 153//153
f 113//113 115//115 116//116
f 27//27 501//501 50//50
f 129//129 483//483 128//128
f 93//93 95//95 94//94
f 126//126 127//127 125//125
f 11//11 153//153 14//14
f 42//42 40//40 39//39
f 81//81 500//500 503//503
f 79//79 77//77 76//76
f 132//132 133//133 134//134
f 80//80 52//52 81//81
f 64//64 66//66 65//65
f 51//51 53//53 52//52
f 486//486 52//52 53//53
f 102//102 89//89 101//101
f 485//485 158//158 492//492
f 61//61 59//59 58//58
f 97//97 69//69 98//98
f 156//156 506//506 157//157
f 65//65 539//539 534//534
f 481//481 75//75 44//44
f 168//168 166//166 165//165
f 169//169 100//100 103//103
f 534//534 172//172 171//171
f 67//67 528//528 497//497
f 64//64 534//534 533//533
f 6//6 140//140 5//5
f 543//543 173//173 184//184
f 185//185 57//57 184//184
f 477//477 59//59 75//75
f 498//498 67//67 497//497
f 187//187 12//12 188//188
f 180//180 172//172 181//181
f 13//13 98//98 22//22
f 190//190 11//11 187//187
f 157//157 488//488 164//164
f 14//14 97//97 13//13
f 198//198 28//28 29//29
f 203//203 206//206 205//205
f 30//30 208//208 204//204
f 209//209 103//103 210//210
f 212//212 209//209 213//213
f 215//215 203//203 216//216
f 32//32 204//204 203//203
f 54//54 56//56 53//53
f 216//216 205//205 219//219
f 217//217 219//219 214//214
f 220//220 219//219 221//221
f 222//222 221//221 223//223
f 223//223 225//225 224//224
f 227//227 213//213 226//226
f 229//229 226//226 228//228
f 104//104 217//217 230//230
f 228//228 220//220 222//222
f 226//226 214//214 220//220
f 99//99 101//101 100//100
f 84//84 86//86 85//85
f 241//241 249//249 248//248
f 248//248 250//250 251//251
f 208//208 254//254 253//253
f 147//147 253//253 179//179
f 494//494 58//58 59//59
f 129//129 96//96 93//93
f 124//124 162//162 163//163
f 255//255 72//72 150//150
f 258//258 131//131 128//128
f 174//174 158//158 159//159
f 224//224 263//263 144//144
f 108//108 115//115 109//109
f 177//177 228//228 222//222
f 136//136 252//252 147//147
f 137//137 265//265 136//136
f 137//137 262//262 260//260
f 105//105 216//216 217//217
f 489//489 53//53 56//56
f 142//142 266//266 118//118
f 118//118 195//195 117//117
f 195//195 71//71 68//68
f 176//176 222//222 223//223
f 262//262 157//157 146//146
f 227//227 183//183 267//267
f 119//119 94//94 95//95
f 197//197 4//4 140//140
f 200//200 202//202 199//199
f 263//263 205//205 206//206
f 231//231 233//233 234//234
f 236//236 238//238 239//239
f 244//244 246//246 247//247
f 153//153 194//194 14//14
f 76//76 529//529 531//531
f 145//145 158//158 175//175
f 247//247 256//256 257//257
f 146//146 164//164 145//145
f 73//73 279//279 72//72
f 149//149 72//72 279//279
f 280//280 166//166 279//279
f 167//167 279//279 166//166
f 176//176 224//224 175//175
f 45//45 480//480 495//495
f 281//281 99//99 280//280
f 282//282 251//251 281//281
f 269//269 271//271 268//268
f 170//170 289//289 287//287
f 168//168 287//287 290//290
f 293//293 291//291 292//292
f 532//532 54//54 51//51
f 531//531 60//60 61//61
f 287//287 294//294 295//295
f 295//295 541//541 537//537
f 294//294 532//532 541//541
f 259//259 296//296 297//297
f 297//297 536//536 535//535
f 530//530 57//57 54//54
f 71//71 29//29 70//70
f 289//289 292//292 294//294
f 537//537 80//80 63//63
f 291//291 538//538 530//530
f 144//144 175//175 224//224
f 296//296 537//537 536//536
f 267//267 182//182 291//291
f 273//273 234//234 233//233
f 275//275 277//277 278//278
f 230//230 103//103 104//104
f 77//77 542//542 529//529
f 78//78 298//298 77//77
f 298//298 535//535 542//542
f 267//267 212//212 227//227
f 12//12 22//22 23//23
f 264//264 206//206 207//207
f 283//283 285//285 286//286
f 1//1 3//3 2//2
f 299//299 188//188 272//272
f 190//190 4//4 1//1
f 167//167 290//290 259//259
f 139//139 187//187 299//299
f 60//60 75//75 59//59
f 499//499 2//2 3//3
f 288//288 197//197 196//196
f 148//148 297//297 298//298
f 15//15 84//84 154//154
f 302//302 232//232 231//231
f 306//306 308//308 305//305
f 230//230 214//214 210//210
f 163//163 239//239 124//124
f 309//309 245//245 244//244
f 123//123 7//7 162//162
f 48//48 186//186 119//119
f 538//538 184//184 57//57
f 274//274 310//310 309//309
f 23//23 188//188 12//12
f 311//311 313//313 314//314
f 315//315 317//317 318//318
f 320//320 18//18 319//319
f 321//321 323//323 324//324
f 325//325 284//284 283//283
f 194//194 68//68 97//97
f 144//144 264//264 143//143
f 264//264 260//260 143//143
f 265//265 207//207 252//252
f 327//327 329//329 330//330
f 328//328 332//332 329//329
f 329//329 333//333 316//316
f 330//330 316//316 315//315
f 204//204 207//207 206//206
f 312//312 201//201 313//313
f 112//112 318//318 317//317
f 133//133 122//122 334//334
f 335//335 337//337 237//237
f 503//503 62//62 81//81
f 338//338 340//340 341//341
f 342//342 344//344 341//341
f 345//345 346//346 19//19
f 347//347 237//237 236//236
f 336//336 323//323 337//337
f 349//349 351//351 352//352
f 341//341 353//353 342//342
f 354//354 356//356 307//307
f 138//138 156//156 262//262
f 357//357 163//163 162//162
f 260//260 146//146 143//143
f 148//148 150//150 149//149
f 266//266 198//198 71//71
f 540//540 485//485 528//528
f 184//184 160//160 185//185
f 540//540 64//64 533//533
f 42//42 38//38 85//85
f 100//100 104//104 103//103
f 39//39 21//21 34//34
f 240//240 242//242 241//241
f 16//16 91//91 15//15
f 154//154 85//85 38//38
f 243//243 41//41 242//242
f 107//107 358//358 357//357
f 252//252 208//208 253//253
f 56//56 476//476 489//489
f 249//249 87//87 250//250
f 193//193 202//202 312//312
f 92//92 272//272 37//37
f 153//153 47//47 141//141
f 485//485 365//365 366//366
f 495//495 44//44 45//45
f 152//152 1//1 35//35
f 486//486 245//245 500//500
f 183//183 181//181 182//182
f 62//62 46//46 63//63
f 481//481 303//303 477//477
f 370//370 372//372 369//369
f 369//369 374//374 373//373
f 373//373 328//328 369//369
f 370//370 328//328 327//327
f 514//514 376//376 523//523
f 514//514 275//275 513//513
f 378//378 380//380 375//375
f 375//375 381//381 376//376
f 20//20 346//346 382//382
f 340//340 383//383 353//353
f 358//358 236//236 163//163
f 384//384 376//376 381//381
f 385//385 387//387 386//386
f 522//522 388//388 527//527
f 527//527 377//377 523//523
f 389//389 257//257 256//256
f 237//237 390//390 238//238
f 498//498 278//278 277//277
f 477//477 269//269 494//494
f 63//63 81//81 62//62
f 250//250 88//88 102//102
f 251//251 102//102 99//99
f 391//391 108//108 107//107
f 109//109 326//326 325//325
f 213//213 210//210 214//214
f 395//395 107//107 357//357
f 135//135 317//317 396//396
f 219//219 225//225 221//221
f 149//149 259//259 148//148
f 141//141 195//195 194//194
f 358//358 397//397 347//347
f 110//110 325//325 397//397
f 397//397 283//283 398//398
f 347//347 398//398 335//335
f 360//360 199//199 202//202
f 399//399 346//346 400//400
f 286//286 126//126 401//401
f 401//401 125//125 132//132
f 396//396 122//122 135//135
f 134//134 403//403 132//132
f 402//402 405//405 403//403
f 403//403 406//406 407//407
f 132//132 407//407 401//401
f 242//242 86//86 249//249
f 179//179 254//254 142//142
f 408//408 331//331 373//373
f 410//410 373//373 374//374
f 411//411 408//408 410//410
f 412//412 409//409 408//408
f 414//414 402//402 134//134
f 333//333 415//415 414//414
f 416//416 417//417 415//415
f 415//415 404//404 402//402
f 418//418 417//417 413//413
f 420//420 419//419 418//418
f 421//421 423//423 419//419
f 417//417 423//423 404//404
f 412//412 425//425 424//424
f 424//424 427//427 426//426
f 426//426 418//418 424//424
f 413//413 424//424 418//418
f 428//428 413//413 416//416
f 416//416 332//332 428//428
f 331//331 428//428 332//332
f 316//316 396//396 317//317
f 312//312 359//359 193//193
f 114//114 199//199 161//161
f 243//243 520//520 40//40
f 430//430 432//432 433//433
f 431//431 435//435 432//432
f 432//432 313//313 201//201
f 433//433 201//201 200//200
f 435//435 314//314 313//313
f 434//434 436//436 435//435
f 437//437 330//330 436//436
f 436//436 315//315 314//314
f 438//438 407//407 406//406
f 353//353 439//439 438//438
f 383//383 440//440 439//439
f 407//407 440//440 401//401
f 339//339 324//324 340//340
f 494//494 268//268 484//484
f 485//485 524//524 528//528
f 524//524 275//275 278//278
f 388//388 367//367 377//377
f 378//378 365//365 379//379
f 442//442 341//341 344//344
f 355//355 443//443 371//371
f 444//444 352//352 445//445
f 381//381 426//426 384//384
f 422//422 446//446 423//423
f 350//350 447//447 446//446
f 447//447 405//405 446//446
f 446//446 404//404 423//423
f 444//444 447//447 349//349
f 448//448 343//343 342//342
f 342//342 438//438 448//448
f 448//448 406//406 447//447
f 384//384 427//427 387//387
f 343//343 445//445 344//344
f 243//243 517//517 518//518
f 489//489 246//246 486//486
f 395//395 10//10 345//345
f 348//348 449//449 440//440
f 336//336 398//398 449//449
f 398//398 286//286 449//449
f 449//449 401//401 440//440
f 380//380 420//420 381//381
f 425//425 387//387 427//427
f 130//130 179//179 96//96
f 445//445 364//364 363//363
f 344//344 363//363 442//442
f 337//337 322//322 390//390
f 400//400 10//10 9//9
f 116//116 392//392 394//394
f 192//192 393//393 451//451
f 171//171 177//177 176//176
f 529//529 74//74 60//60
f 503//503 273//273 480//480
f 495//495 232//232 481//481
f 276//276 367//367 277//277
f 508//508 305//305 510//510
f 351//351 365//365 368//368
f 352//352 368//368 364//364
f 166//166 100//100 165//165
f 380//380 422//422 421//421
f 452//452 301//301 300//300
f 355//355 300//300 356//356
f 371//371 452//452 355//355
f 453//453 370//370 327//327
f 437//437 455//455 454//454
f 453//453 304//304 301//301
f 327//327 454//454 453//453
f 89//89 191//191 105//105
f 431//431 362//362 456//456
f 434//434 456//456 455//455
f 155//155 39//39 34//34
f 374//374 458//458 410//410
f 372//372 457//457 374//374
f 196//196 140//140 178//178
f 386//386 450//450 460//460
f 460//460 462//462 461//461
f 511//511 247//247 509//509
f 509//509 257//257 522//522
f 461//461 458//458 463//463
f 463//463 457//457 464//464
f 525//525 464//464 519//519
f 511//511 463//463 525//525
f 464//464 459//459 465//465
f 465//465 443//443 466//466
f 516//516 466//466 515//515
f 519//519 465//465 516//516
f 462//462 410//410 458//458
f 350//350 379//379 351//351
f 466//466 354//354 467//467
f 467//467 307//307 306//306
f 526//526 306//306 508//508
f 515//515 467//467 526//526
f 307//307 441//441 308//308
f 324//324 348//348 383//383
f 450//450 411//411 462//462
f 414//414 396//396 333//333
f 319//319 192//192 320//320
f 19//19 468//468 345//345
f 320//320 451//451 468//468
f 468//468 392//392 391//391
f 345//345 391//391 395//395
f 371//371 459//459 372//372
f 357//357 7//7 395//395
f 270//270 303//303 302//302
f 499//499 8//8 478//478
f 261//261 9//9 499//499
f 451//451 394//394 392//392
f 318//318 314//314 315//315
f 288//288 400//400 261//261
f 125//125 121//121 133//133
f 126//126 83//83 82//82
f 284//284 83//83 285//285
f 311//311 111//111 359//359
f 134//134 334//334 414//414
f 211//211 169//169 209//209
f 32//32 106//106 31//31
f 139//139 140//140 4//4
f 160//160 65//65 66//66
f 215//215 191//191 106//106
f 5//5 299//299 92//92
f 96//96 142//142 95//95
f 229//229 180//180 183//183
f 430//430 361//361 362//362
f 433//433 471//471 430//430
f 473//473 470//470 472//472
f 474//474 473//473 200//200
f 473//473 433//433 200//200
f 199//199 474//474 200//200
f 33//33 90//90 16//16
f 170//170 165//165 169//169
f 394//394 475//475 116//116
f 290//290 295//295 296//296
f 25//25 191//191 33//33
f 293//293 211//211 212//212
f 78//78 255//255 150//150
f 123//123 505//505 504//504
f 124//124 501//501 505//505
f 310//310 500//500 245//245
f 502//502 277//277 367//367
f 363//363 506//506 493//493
f 442//442 493//493 496//496
f 368//368 492//492 488//488
f 364//364 488//488 506//506
f 390//390 487//487 490//490
f 322//322 491//491 487//487
f 174//174 176//176 175//175
f 338//338 496//496 483//483
f 339//339 483//483 482//482
f 321//321 482//482 491//491
f 261//261 3//3 197//197
f 233//233 480//480 273//273
f 1//1 26//26 35//35
f 239//239 479//479 501//501
f 238//238 490//490 479//479
f 8//8 504//504 478//478
f 91//91 87//87 84//84
f 389//389 502//502 367//367
f 256//256 476//476 389//389
f 39//39 521//521 235//235
f 66//66 502//502 160//160
f 186//186 487//487 94//94
f 94//94 491//491 93//93
f 258//258 493//493 156//156
f 26//26 505//505 27//27
f 164//164 492//492 158//158
f 50//50 479//479 49//49
f 2//2 504//504 26//26
f 93//93 482//482 129//129
f 128//128 496//496 258//258
f 49//49 490//490 186//186
f 185//185 502//502 476//476
f 231//231 526//526 302//302
f 302//302 508//508 270//270
f 274//274 516//516 234//234
f 234//234 515//515 231//231
f 244//244 525//525 309//309
f 309//309 519//519 274//274
f 460//460 522//522 386//386
f 461//461 509//509 460//460
f 270//270 510//510 271//271
f 542//542 43//43 74//74
f 366//366 513//513 524//524
f 528//528 278//278 497//497
f 385//385 523//523 376//376
f 386//386 527//527 385//385
f 375//375 513//513 378//378
f 276//276 523//523 377//377
f 541//541 51//51 80//80
f 535//535 46//46 43//43
f 536//536 63//63 46//46
f 292//292 530//530 532//532
f 182//182 543//543 538//538
f 159//159 533//533 174//174
f 181//181 539//539 543//543
f 533//533 171//171 174//174
f 11//11 14//14 13//13
f 7//7 8//8 9//9
f 18//18 19//19 20//20
f 30//30 32//32 31//31
f 27//27 36//36 35//35
f 47//47 50//50 49//49
f 68//68 71//71 70//70
f 74//74 43//43 44//44
f 36//36 27//27 50//50
f 43//43 46//46 45//45
f 88//88 91//91 90//90
f 85//85 86//86 41//41
f 101//101 89//89 105//105
f 25//25 24//24 31//31
f 117//117 48//48 119//119
f 128//128 131//131 130//130
f 138//138 137//137 136//136
f 118//118 119//119 95//95
f 141//141 47//47 48//48
f 143//143 146//146 145//145
f 131//131 136//136 147//147
f 107//107 108//108 109//109
f 152//152 35//35 36//36
f 113//113 55//55 115//115
f 27//27 505//505 501//501
f 129//129 482//482 483//483
f 93//93 96//96 95//95
f 126//126 82//82 127//127
f 11//11 152//152 153//153
f 42//42 41//41 40//40
f 81//81 52//52 500//500
f 79//79 78//78 77//77
f 132//132 125//125 133//133
f 80//80 51//51 52//52
f 64//64 67//67 66//66
f 51//51 54//54 53//53
f 486//486 500//500 52//52
f 102//102 88//88 89//89
f 485//485 159//159 158//158
f 61//61 60//60 59//59
f 97//97 68//68 69//69
f 156//156 493//493 506//506
f 65//65 173//173 539//539
f 481//481 477//477 75//75
f 168//168 167//167 166//166
f 169//169 165//165 100//100
f 534//534 539//539 172//172
f 67//67 540//540 528//528
f 64//64 65//65 534//534
f 6//6 178//178 140//140
f 543//543 539//539 173//173
f 185//185 56//56 57//57
f 477//477 494//494 59//59
f 498//498 66//66 67//67
f 187//187 11//11 12//12
f 180//180 177//177 172//172
f 13//13 97//97 98//98
f 190//190 152//152 11//11
f 157//157 506//506 488//488
f 14//14 194//194 97//97
f 198//198 30//30 28//28
f 203//203 204//204 206//206
f 30//30 198//198 208//208
f 209//209 169//169 103//103
f 212//212 211//211 209//209
f 215//215 32//32 203//203
f 32//32 30//30 204//204
f 54//54 57//57 56//56
f 216//216 203//203 205//205
f 217//217 216//216 219//219
f 220//220 214//214 219//219
f 222//222 220//220 221//221
f 223//223 221//221 225//225
f 227//227 212//212 213//213
f 229//229 227//227 226//226
f 104//104 105//105 217//217
f 228//228 226//226 220//220
f 226//226 213//213 214//214
f 99//99 102//102 101//101
f 84//84 87//87 86//86
f 241//241 242//242 249//249
f 248//248 249//249 250//250
f 208//208 198//198 254//254
f 147//147 252//252 253//253
f 494//494 484//484 58//58
f 129//129 130//130 96//96
f 124//124 123//123 162//162
f 258//258 138//138 131//131
f 174//174 175//175 158//158
f 224//224 225//225 263//263
f 108//108 116//116 115//115
f 177//177 180//180 228//228
f 136//136 265//265 252//252
f 137//137 260//260 265//265
f 137//137 138//138 262//262
f 105//105 215//215 216//216
f 489//489 486//486 53//53
f 142//142 254//254 266//266
f 118//118 266//266 195//195
f 195//195 266//266 71//71
f 176//176 177//177 222//222
f 262//262 156//156 157//157
f 227//227 229//229 183//183
f 119//119 186//186 94//94
f 197//197 3//3 4//4
f 200//200 201//201 202//202
f 263//263 225//225 205//205
f 231//231 232//232 233//233
f 236//236 237//237 238//238
f 244//244 245//245 246//246
f 153//153 141//141 194//194
f 76//76 77//77 529//529
f 145//145 164//164 158//158
f 247//247 246//246 256//256
f 146//146 157//157 164//164
f 73//73 280//280 279//279
f 149//149 150//150 72//72
f 280//280 99//99 166//166
f 167//167 149//149 279//279
f 176//176 223//223 224//224
f 45//45 62//62 480//480
f 281//281 251//251 99//99
f 282//282 248//248 251//251
f 269//269 270//270 271//271
f 170//170 211//211 289//289
f 168//168 170//170 287//287
f 293//293 267//267 291//291
f 532//532 530//530 54//54
f 531//531 529//529 60//60
f 287//287 289//289 294//294
f 295//295 294//294 541//541
f 294//294 292//292 532//532
f 259//259 290//290 296//296
f 297//297 296//296 536//536
f 530//530 538//538 57//57
f 71//71 198//198 29//29
f 289//289 293//293 292//292
f 537//537 541//541 80//80
f 291//291 182//182 538//538
f 144//144 145//145 175//175
f 296//296 295//295 537//537
f 267//267 183//183 182//182
f 273//273 274//274 234//234
f 275//275 276//276 277//277
f 230//230 210//210 103//103
f 77//77 298//298 542//542
f 78//78 148//148 298//298
f 298//298 297//297 535//535
f 267//267 293//293 212//212
f 12//12 13//13 22//22
f 264//264 263//263 206//206
f 283//283 284//284 285//285
f 1//1 4//4 3//3
f 299//299 187//187 188//188
f 190//190 139//139 4//4
f 167//167 168//168 290//290
f 139//139 190//190 187//187
f 60//60 74//74 75//75
f 499//499 478//478 2//2
f 288//288 261//261 197//197
f 28//28 31//31 24//24
f 148//148 259//259 297//297
f 15//15 91//91 84//84
f 302//302 303//303 232//232
f 306//306 307//307 308//308
f 230//230 217//217 214//214
f 272//272 188//188 189//189
f 163//163 236//236 239//239
f 309//309 310//310 245//245
f 123//123 8//8 7//7
f 48//48 49//49 186//186
f 538//538 543//543 184//184
f 274//274 273//273 310//310
f 23//23 189//189 188//188
f 311//311 312//312 313//313
f 315//315 316//316 317//317
f 320//320 19//19 18//18
f 321//321 322//322 323//323
f 325//325 326//326 284//284
f 194//194 195//195 68//68
f 144//144 263//263 264//264
f 264//264 265//265 260//260
f 265//265 264//264 207//207
f 327//327 328//328 329//329
f 328//328 331//331 332//332
f 329//329 332//332 333//333
f 330//330 329//329 316//316
f 204//204 208//208 207//207
f 312//312 202//202 201//201
f 112//112 111//111 318//318
f 133//133 121//121 122//122
f 335//335 336//336 337//337
f 503//503 480//480 62//62
f 338//338 339//339 340//340
f 342//342 343//343 344//344
f 345//345 10//10 346//346
f 347//347 335//335 237//237
f 336//336 348//348 323//323
f 349//349 350//350 351//351
f 341//341 340//340 353//353
f 354//354 355//355 356//356
f 138//138 258//258 156//156
f 357//357 358//358 163//163
f 260//260 262//262 146//146
f 148//148 78//78 150//150
f 266//266 254//254 198//198
f 540//540 159//159 485//485
f 184//184 173//173 160//160
f 540//540 67//67 64//64
f 42//42 155//155 38//38
f 100//100 101//101 104//104
f 39//39 235//235 21//21
f 240//240 243//243 242//242
f 16//16 90//90 91//91
f 154//154 84//84 85//85
f 243//243 40//40 41//41
f 107//107 110//110 358//358
f 252//252 207//207 208//208
f 56//56 185//185 476//476
f 249//249 86//86 87//87
f 193//193 360//360 202//202
f 92//92 299//299 272//272
f 153//153 36//36 47//47
f 485//485 492//492 365//365
f 495//495 481//481 44//44
f 152//152 190//190 1//1
f 486//486 246//246 245//245
f 17//17 23//23 22//22
f 183//183 180//180 181//181
f 62//62 45//45 46//46
f 481//481 232//232 303//303
f 151//151 155//155 34//34
f 370//370 371//371 372//372
f 369//369 372//372 374//374
f 373//373 331//331 328//328
f 370//370 369//369 328//328
f 514//514 375//375 376//376
f 514//514 276//276 275//275
f 378//378 379//379 380//380
f 375//375 380//380 381//381
f 20//20 19//19 346//346
f 340//340 324//324 383//383
f 358//358 347//347 236//236
f 384//384 385//385 376//376
f 385//385 384//384 387//387
f 522//522 257//257 388//388
f 527//527 388//388 377//377
f 389//389 388//388 257//257
f 237//237 337//337 390//390
f 498//498 497//497 278//278
f 477//477 303//303 269//269
f 63//63 80//80 81//81
f 250//250 87//87 88//88
f 251//251 250//250 102//102
f 391//391 392//392 108//108
f 109//109 115//115 326//326
f 213//213 209//209 210//210
f 395//395 391//391 107//107
f 135//135 112//112 317//317
f 219//219 205//205 225//225
f 149//149 167//167 259//259
f 141//141 117//117 195//195
f 120//120 284//284 326//326
f 358//358 110//110 397//397
f 110//110 109//109 325//325
f 397//397 325//325 283//283
f 347//347 397//397 398//398
f 360//360 161//161 199//199
f 399//399 382//382 346//346
f 286//286 285//285 126//126
f 401//401 126//126 125//125
f 396//396 334//334 122//122
f 134//134 402//402 403//403
f 402//402 404//404 405//405
f 403//403 405//405 406//406
f 132//132 403//403 407//407
f 242//242 41//41 86//86
f 179//179 253//253 254//254
f 408//408 409//409 331//331
f 410//410 408//408 373//373
f 411//411 412//412 408//408
f 412//412 413//413 409//409
f 414//414 415//415 402//402
f 333//333 416//416 415//415
f 416//416 413//413 417//417
f 415//415 417//417 404//404
f 418//418 419//419 417//417
f 420//420 421//421 419//419
f 421//421 422//422 423//423
f 417//417 419//419 423//423
f 412//412 411//411 425//425
f 424//424 425//425 427//427
f 426//426 420//420 418//418
f 413//413 412//412 424//424
f 428//428 409//409 413//413
f 416//416 333//333 332//332
f 331//331 409//409 428//428
f 316//316 333//333 396//396
f 312//312 311//311 359//359
f 114//114 429//429 199//199
f 243//243 518//518 520//520
f 430//430 431//431 432//432
f 431//431 434//434 435//435
f 432//432 435//435 313//313
f 433//433 432//432 201//201
f 435//435 436//436 314//314
f 434//434 437//437 436//436
f 437//437 327//327 330//330
f 436//436 330//330 315//315
f 438//438 439//439 407//407
f 353//353 383//383 439//439
f 383//383 348//348 440//440
f 407//407 439//439 440//440
f 339//339 321//321 324//324
f 494//494 269//269 268//268
f 485//485 366//366 524//524
f 524//524 513//513 275//275
f 441//441 356//356 300//300
f 388//388 389//389 367//367
f 378//378 366//366 365//365
f 442//442 338//338 341//341
f 355//355 354//354 443//443
f 444//444 349//349 352//352
f 381//381 420//420 426//426
f 422//422 350//350 446//446
f 350//350 349//349 447//447
f 447//447 406//406 405//405
f 446//446 405//405 404//404
f 444//444 448//448 447//447
f 448//448 444//444 343//343
f 342//342 353//353 438//438
f 448//448 438//438 406//406
f 384//384 426//426 427//427
f 343//343 444//444 445//445
f 243//243 240//240 517//517
f 489//489 256//256 246//246
f 395//395 7//7 10//10
f 348//348 336//336 449//449
f 336//336 335//335 398//398
f 398//398 283//283 286//286
f 449//449 286//286 401//401
f 380//380 421//421 420//420
f 425//425 450//450 387//387
f 130//130 147//147 179//179
f 445//445 352//352 364//364
f 344//344 445//445 363//363
f 337//337 323//323 322//322
f 400//400 346//346 10//10
f 116//116 108//108 392//392
f 171//171 172//172 177//177
f 529//529 542//542 74//74
f 503//503 310//310 273//273
f 495//495 233//233 232//232
f 276//276 377//377 367//367
f 508//508 306//306 305//305
f 351//351 379//379 365//365
f 352//352 351//351 368//368
f 166//166 99//99 100//100
f 380//380 379//379 422//422
f 452//452 453//453 301//301
f 355//355 452//452 300//300
f 371//371 370//370 452//452
f 453//453 452//452 370//370
f 437//437 434//434 455//455
f 453//453 454//454 304//304
f 327//327 437//437 454//454
f 89//89 90//90 191//191
f 431//431 430//430 362//362
f 455//455 456//456 218//218
f 434//434 431//431 456//456
f 155//155 42//42 39//39
f 374//374 457//457 458//458
f 372//372 459//459 457//457
f 196//196 197//197 140//140
f 386//386 387//387 450//450
f 460//460 450//450 462//462
f 511//511 244//244 247//247
f 509//509 247//247 257//257
f 461//461 462//462 458//458
f 463//463 458//458 457//457
f 525//525 463//463 464//464
f 511//511 461//461 463//463
f 464//464 457//457 459//459
f 465//465 459//459 443//443
f 516//516 465//465 466//466
f 519//519 464//464 465//465
f 462//462 411//411 410//410
f 350//350 422//422 379//379
f 466//466 443//443 354//354
f 467//467 354//354 307//307
f 526//526 467//467 306//306
f 515//515 466//466 467//467
f 307//307 356//356 441//441
f 324//324 323//323 348//348
f 450//450 425//425 411//411
f 414//414 334//334 396//396
f 19//19 320//320 468//468
f 320//320 192//192 451//451
f 468//468 451//451 392//392
f 345//345 468//468 391//391
f 371//371 443//443 459//459
f 357//357 162//162 7//7
f 270//270 269//269 303//303
f 499//499 9//9 8//8
f 261//261 400//400 9//9
f 451//451 393//393 394//394
f 318//318 311//311 314//314
f 288//288 399//399 400//400
f 125//125 127//127 121//121
f 126//126 285//285 83//83
f 284//284 120//120 83//83
f 311//311 318//318 111//111
f 134//134 133//133 334//334
f 211//211 170//170 169//169
f 32//32 215//215 106//106
f 139//139 5//5 140//140
f 160//160 173//173 65//65
f 215//215 105//105 191//191
f 5//5 139//139 299//299
f 96//96 179//179 142//142
f 229//229 228//228 180//180
f 430//430 471//471 361//361
f 433//433 472//472 471//471
f 474//474 469//469 473//473
f 473//473 472//472 433//433
f 199//199 429//429 474//474
f 33//33 191//191 90//90
f 170//170 168//168 165//165
f 290//290 287//287 295//295
f 25//25 106//106 191//191
f 293//293 289//289 211//211
f 78//78 79//79 255//255
f 123//123 124//124 505//505
f 124//124 239//239 501//501
f 310//310 503//503 500//500
f 502//502 498//498 277//277
f 363//363 364//364 506//506
f 442//442 363//363 493//493
f 368//368 365//365 492//492
f 364//364 368//368 488//488
f 390//390 322//322 487//487
f 322//322 321//321 491//491
f 174//174 171//171 176//176
f 338//338 442//442 496//496
f 339//339 338//338 483//483
f 321//321 339//339 482//482
f 261//261 499//499 3//3
f 233//233 495//495 480//480
f 1//1 2//2 26//26
f 239//239 238//238 479//479
f 238//238 390//390 490//490
f 8//8 123//123 504//504
f 91//91 88//88 87//87
f 389//389 476//476 502//502
f 256//256 489//489 476//476
f 235//235 521//521 507//507
f 39//39 40//40 521//521
f 521//521 40//40 520//520
f 66//66 498//498 502//502
f 186//186 490//490 487//487
f 94//94 487//487 491//491
f 258//258 496//496 493//493
f 26//26 504//504 505//505
f 164//164 488//488 492//492
f 50//50 501//501 479//479
f 2//2 478//478 504//504
f 93//93 491//491 482//482
f 128//128 483//483 496//496
f 49//49 479//479 490//490
f 185//185 160//160 502//502
f 231//231 515//515 526//526
f 302//302 526//526 508//508
f 274//274 519//519 516//516
f 234//234 516//516 515//515
f 244//244 511//511 525//525
f 309//309 525//525 519//519
f 460//460 509//509 522//522
f 461//461 511//511 509//509
f 308//308 441//441 512//512
f 270//270 508//508 510//510
f 542//542 535//535 43//43
f 366//366 378//378 513//513
f 528//528 524//524 278//278
f 385//385 527//527 523//523
f 386//386 522//522 527//527
f 375//375 514//514 513//513
f 276//276 514//514 523//523
f 541//541 532//532 51//51
f 535//535 536//536 46//46
f 536//536 537//537 63//63
f 292//292 291//291 530//530
f 182//182 181//181 543//543
f 159//159 540//540 533//533
f 181//181 172//172 539//539
f 533//533 534//534 171//171
# 984 faces, 0 coords texture

# End of File
